<mxfile host="app.diagrams.net" modified="2020-12-03T10:01:05.161Z" agent="5.0 (Windows NT 10.0; Win64; x64) AppleWebKit/537.36 (KHTML, like Gecko) Chrome/87.0.4280.66 Safari/537.36" etag="Wo2Fu-vTR-baX83qM_Hj" version="13.10.6" type="github">
  <diagram id="kgpKYQtTHZ0yAKxKKP6v" name="Page-1">
    <mxGraphModel dx="1038" dy="580" grid="1" gridSize="10" guides="1" tooltips="1" connect="1" arrows="1" fold="1" page="1" pageScale="1" pageWidth="850" pageHeight="1100" math="0" shadow="0">
      <root>
        <mxCell id="0" />
        <mxCell id="1" parent="0" />
        <mxCell id="3nuBFxr9cyL0pnOWT2aG-1" value="网关" style="shape=umlLifeline;perimeter=lifelinePerimeter;container=1;collapsible=0;recursiveResize=0;rounded=0;shadow=0;strokeWidth=1;" parent="1" vertex="1">
          <mxGeometry x="120" y="60" width="100" height="1390" as="geometry" />
        </mxCell>
        <mxCell id="3nuBFxr9cyL0pnOWT2aG-2" value="" style="points=[];perimeter=orthogonalPerimeter;rounded=0;shadow=0;strokeWidth=1;" parent="3nuBFxr9cyL0pnOWT2aG-1" vertex="1">
          <mxGeometry x="45" y="70" width="10" height="350" as="geometry" />
        </mxCell>
        <mxCell id="3nuBFxr9cyL0pnOWT2aG-3" value="login" style="verticalAlign=bottom;startArrow=oval;endArrow=block;startSize=8;shadow=0;strokeWidth=1;" parent="3nuBFxr9cyL0pnOWT2aG-1" target="3nuBFxr9cyL0pnOWT2aG-2" edge="1">
          <mxGeometry relative="1" as="geometry">
            <mxPoint x="-15" y="70" as="sourcePoint" />
          </mxGeometry>
        </mxCell>
        <mxCell id="EFeu-lty3BV-lqoRmeSq-3" value="" style="html=1;points=[];perimeter=orthogonalPerimeter;" vertex="1" parent="3nuBFxr9cyL0pnOWT2aG-1">
          <mxGeometry x="55" y="100" width="10" height="40" as="geometry" />
        </mxCell>
        <mxCell id="EFeu-lty3BV-lqoRmeSq-4" value="routes判断" style="edgeStyle=orthogonalEdgeStyle;html=1;align=left;spacingLeft=2;endArrow=block;rounded=0;entryX=1;entryY=0;" edge="1" target="EFeu-lty3BV-lqoRmeSq-3" parent="3nuBFxr9cyL0pnOWT2aG-1">
          <mxGeometry relative="1" as="geometry">
            <mxPoint x="55" y="80" as="sourcePoint" />
            <Array as="points">
              <mxPoint x="80" y="80" />
            </Array>
          </mxGeometry>
        </mxCell>
        <mxCell id="EFeu-lty3BV-lqoRmeSq-31" value="" style="html=1;points=[];perimeter=orthogonalPerimeter;" vertex="1" parent="3nuBFxr9cyL0pnOWT2aG-1">
          <mxGeometry x="45" y="430" width="10" height="870" as="geometry" />
        </mxCell>
        <mxCell id="EFeu-lty3BV-lqoRmeSq-33" value="" style="html=1;points=[];perimeter=orthogonalPerimeter;" vertex="1" parent="3nuBFxr9cyL0pnOWT2aG-1">
          <mxGeometry x="55" y="500" width="10" height="40" as="geometry" />
        </mxCell>
        <mxCell id="EFeu-lty3BV-lqoRmeSq-34" value="route" style="edgeStyle=orthogonalEdgeStyle;html=1;align=left;spacingLeft=2;endArrow=block;rounded=0;entryX=1;entryY=0;" edge="1" target="EFeu-lty3BV-lqoRmeSq-33" parent="3nuBFxr9cyL0pnOWT2aG-1">
          <mxGeometry x="0.0769" y="5" relative="1" as="geometry">
            <mxPoint x="50" y="480" as="sourcePoint" />
            <Array as="points">
              <mxPoint x="85" y="480" />
            </Array>
            <mxPoint as="offset" />
          </mxGeometry>
        </mxCell>
        <mxCell id="EFeu-lty3BV-lqoRmeSq-77" value="" style="html=1;points=[];perimeter=orthogonalPerimeter;" vertex="1" parent="3nuBFxr9cyL0pnOWT2aG-1">
          <mxGeometry x="35" y="930" width="10" height="80" as="geometry" />
        </mxCell>
        <mxCell id="3nuBFxr9cyL0pnOWT2aG-5" value="认证" style="shape=umlLifeline;perimeter=lifelinePerimeter;container=1;collapsible=0;recursiveResize=0;rounded=0;shadow=0;strokeWidth=1;" parent="1" vertex="1">
          <mxGeometry x="350" y="60" width="100" height="1390" as="geometry" />
        </mxCell>
        <mxCell id="3nuBFxr9cyL0pnOWT2aG-6" value="" style="points=[];perimeter=orthogonalPerimeter;rounded=0;shadow=0;strokeWidth=1;" parent="3nuBFxr9cyL0pnOWT2aG-5" vertex="1">
          <mxGeometry x="45" y="80" width="10" height="350" as="geometry" />
        </mxCell>
        <mxCell id="EFeu-lty3BV-lqoRmeSq-26" value="" style="html=1;points=[];perimeter=orthogonalPerimeter;" vertex="1" parent="3nuBFxr9cyL0pnOWT2aG-5">
          <mxGeometry x="55" y="160" width="10" height="80" as="geometry" />
        </mxCell>
        <mxCell id="EFeu-lty3BV-lqoRmeSq-27" value="登录逻辑处理" style="edgeStyle=orthogonalEdgeStyle;html=1;align=left;spacingLeft=2;endArrow=block;rounded=0;entryX=1;entryY=0;exitX=0.5;exitY=0.438;exitDx=0;exitDy=0;exitPerimeter=0;" edge="1" target="EFeu-lty3BV-lqoRmeSq-26" parent="3nuBFxr9cyL0pnOWT2aG-5" source="3nuBFxr9cyL0pnOWT2aG-6">
          <mxGeometry relative="1" as="geometry">
            <mxPoint x="60" y="150" as="sourcePoint" />
            <Array as="points">
              <mxPoint x="85" y="150" />
              <mxPoint x="85" y="160" />
            </Array>
          </mxGeometry>
        </mxCell>
        <mxCell id="EFeu-lty3BV-lqoRmeSq-35" value="" style="html=1;points=[];perimeter=orthogonalPerimeter;" vertex="1" parent="3nuBFxr9cyL0pnOWT2aG-5">
          <mxGeometry x="45" y="500" width="10" height="480" as="geometry" />
        </mxCell>
        <mxCell id="EFeu-lty3BV-lqoRmeSq-39" value="" style="html=1;points=[];perimeter=orthogonalPerimeter;" vertex="1" parent="3nuBFxr9cyL0pnOWT2aG-5">
          <mxGeometry x="55" y="560" width="10" height="40" as="geometry" />
        </mxCell>
        <mxCell id="EFeu-lty3BV-lqoRmeSq-40" value="jwt解析" style="edgeStyle=orthogonalEdgeStyle;html=1;align=left;spacingLeft=2;endArrow=block;rounded=0;entryX=1;entryY=0;" edge="1" target="EFeu-lty3BV-lqoRmeSq-39" parent="3nuBFxr9cyL0pnOWT2aG-5">
          <mxGeometry relative="1" as="geometry">
            <mxPoint x="60" y="540" as="sourcePoint" />
            <Array as="points">
              <mxPoint x="85" y="540" />
            </Array>
          </mxGeometry>
        </mxCell>
        <mxCell id="EFeu-lty3BV-lqoRmeSq-46" value="查询redis登录信息" style="html=1;verticalAlign=bottom;endArrow=block;" edge="1" parent="3nuBFxr9cyL0pnOWT2aG-5" target="EFeu-lty3BV-lqoRmeSq-28">
          <mxGeometry x="0.0031" y="10" width="80" relative="1" as="geometry">
            <mxPoint x="60" y="610" as="sourcePoint" />
            <mxPoint x="140" y="610" as="targetPoint" />
            <Array as="points">
              <mxPoint x="140" y="610" />
            </Array>
            <mxPoint as="offset" />
          </mxGeometry>
        </mxCell>
        <mxCell id="EFeu-lty3BV-lqoRmeSq-49" value="存储用户登录信息" style="html=1;verticalAlign=bottom;endArrow=block;" edge="1" parent="3nuBFxr9cyL0pnOWT2aG-5" target="EFeu-lty3BV-lqoRmeSq-10">
          <mxGeometry width="80" relative="1" as="geometry">
            <mxPoint x="60" y="280" as="sourcePoint" />
            <mxPoint x="140" y="280" as="targetPoint" />
          </mxGeometry>
        </mxCell>
        <mxCell id="EFeu-lty3BV-lqoRmeSq-51" value="用户登录信息" style="html=1;verticalAlign=bottom;endArrow=block;" edge="1" parent="3nuBFxr9cyL0pnOWT2aG-5" target="EFeu-lty3BV-lqoRmeSq-28">
          <mxGeometry width="80" relative="1" as="geometry">
            <mxPoint x="60" y="320" as="sourcePoint" />
            <mxPoint x="140" y="320" as="targetPoint" />
          </mxGeometry>
        </mxCell>
        <mxCell id="EFeu-lty3BV-lqoRmeSq-55" value="" style="html=1;points=[];perimeter=orthogonalPerimeter;" vertex="1" parent="3nuBFxr9cyL0pnOWT2aG-5">
          <mxGeometry x="55" y="680" width="10" height="40" as="geometry" />
        </mxCell>
        <mxCell id="EFeu-lty3BV-lqoRmeSq-56" value="redis登录信息为空" style="edgeStyle=orthogonalEdgeStyle;html=1;align=left;spacingLeft=2;endArrow=block;rounded=0;entryX=1;entryY=0;" edge="1" target="EFeu-lty3BV-lqoRmeSq-55" parent="3nuBFxr9cyL0pnOWT2aG-5">
          <mxGeometry relative="1" as="geometry">
            <mxPoint x="60" y="660" as="sourcePoint" />
            <Array as="points">
              <mxPoint x="85" y="660" />
            </Array>
          </mxGeometry>
        </mxCell>
        <mxCell id="EFeu-lty3BV-lqoRmeSq-61" value="return" style="html=1;verticalAlign=bottom;endArrow=open;dashed=1;endSize=8;" edge="1" parent="3nuBFxr9cyL0pnOWT2aG-5">
          <mxGeometry relative="1" as="geometry">
            <mxPoint x="402" y="710" as="sourcePoint" />
            <mxPoint x="70" y="710" as="targetPoint" />
          </mxGeometry>
        </mxCell>
        <mxCell id="EFeu-lty3BV-lqoRmeSq-64" value="" style="html=1;points=[];perimeter=orthogonalPerimeter;" vertex="1" parent="3nuBFxr9cyL0pnOWT2aG-5">
          <mxGeometry x="55" y="770" width="10" height="40" as="geometry" />
        </mxCell>
        <mxCell id="EFeu-lty3BV-lqoRmeSq-65" value="token是否失效" style="edgeStyle=orthogonalEdgeStyle;html=1;align=left;spacingLeft=2;endArrow=block;rounded=0;entryX=1;entryY=0;" edge="1" target="EFeu-lty3BV-lqoRmeSq-64" parent="3nuBFxr9cyL0pnOWT2aG-5">
          <mxGeometry relative="1" as="geometry">
            <mxPoint x="60" y="750" as="sourcePoint" />
            <Array as="points">
              <mxPoint x="85" y="750" />
            </Array>
          </mxGeometry>
        </mxCell>
        <mxCell id="EFeu-lty3BV-lqoRmeSq-85" value="" style="html=1;points=[];perimeter=orthogonalPerimeter;" vertex="1" parent="3nuBFxr9cyL0pnOWT2aG-5">
          <mxGeometry x="55" y="880" width="10" height="80" as="geometry" />
        </mxCell>
        <mxCell id="EFeu-lty3BV-lqoRmeSq-86" value="用户权限" style="edgeStyle=orthogonalEdgeStyle;html=1;align=left;spacingLeft=2;endArrow=block;rounded=0;entryX=1;entryY=0;" edge="1" target="EFeu-lty3BV-lqoRmeSq-85" parent="3nuBFxr9cyL0pnOWT2aG-5">
          <mxGeometry x="0.0769" y="5" relative="1" as="geometry">
            <mxPoint x="60" y="860" as="sourcePoint" />
            <Array as="points">
              <mxPoint x="85" y="860" />
            </Array>
            <mxPoint as="offset" />
          </mxGeometry>
        </mxCell>
        <mxCell id="EFeu-lty3BV-lqoRmeSq-88" value="return" style="html=1;verticalAlign=bottom;endArrow=open;dashed=1;endSize=8;" edge="1" parent="3nuBFxr9cyL0pnOWT2aG-5" source="EFeu-lty3BV-lqoRmeSq-28">
          <mxGeometry relative="1" as="geometry">
            <mxPoint x="150" y="910" as="sourcePoint" />
            <mxPoint x="70" y="910" as="targetPoint" />
          </mxGeometry>
        </mxCell>
        <mxCell id="EFeu-lty3BV-lqoRmeSq-8" value="login登录" style="html=1;verticalAlign=bottom;endArrow=block;entryX=-0.26;entryY=0.162;exitX=1.24;exitY=0.955;exitDx=0;exitDy=0;exitPerimeter=0;entryDx=0;entryDy=0;entryPerimeter=0;" edge="1" target="3nuBFxr9cyL0pnOWT2aG-6" parent="1" source="EFeu-lty3BV-lqoRmeSq-3">
          <mxGeometry relative="1" as="geometry">
            <mxPoint x="315" y="160" as="sourcePoint" />
            <mxPoint x="385" y="200" as="targetPoint" />
          </mxGeometry>
        </mxCell>
        <mxCell id="EFeu-lty3BV-lqoRmeSq-9" value="return header jwt token" style="html=1;verticalAlign=bottom;endArrow=open;dashed=1;endSize=8;" edge="1" source="3nuBFxr9cyL0pnOWT2aG-5" parent="1" target="3nuBFxr9cyL0pnOWT2aG-1">
          <mxGeometry relative="1" as="geometry">
            <mxPoint x="315" y="236" as="targetPoint" />
            <mxPoint x="385" y="295" as="sourcePoint" />
          </mxGeometry>
        </mxCell>
        <mxCell id="EFeu-lty3BV-lqoRmeSq-10" value="数据库" style="shape=umlLifeline;perimeter=lifelinePerimeter;container=1;collapsible=0;recursiveResize=0;rounded=0;shadow=0;strokeWidth=1;" vertex="1" parent="1">
          <mxGeometry x="710" y="60" width="100" height="1390" as="geometry" />
        </mxCell>
        <mxCell id="EFeu-lty3BV-lqoRmeSq-11" value="" style="points=[];perimeter=orthogonalPerimeter;rounded=0;shadow=0;strokeWidth=1;" vertex="1" parent="EFeu-lty3BV-lqoRmeSq-10">
          <mxGeometry x="42.5" y="170" width="15" height="80" as="geometry" />
        </mxCell>
        <mxCell id="EFeu-lty3BV-lqoRmeSq-48" value="" style="html=1;points=[];perimeter=orthogonalPerimeter;" vertex="1" parent="EFeu-lty3BV-lqoRmeSq-10">
          <mxGeometry x="45" y="270" width="10" height="40" as="geometry" />
        </mxCell>
        <mxCell id="EFeu-lty3BV-lqoRmeSq-57" value="" style="html=1;points=[];perimeter=orthogonalPerimeter;" vertex="1" parent="EFeu-lty3BV-lqoRmeSq-10">
          <mxGeometry x="45" y="690" width="10" height="40" as="geometry" />
        </mxCell>
        <mxCell id="EFeu-lty3BV-lqoRmeSq-14" value="直接返回结果" style="html=1;verticalAlign=bottom;endArrow=open;dashed=1;endSize=8;" edge="1" parent="1">
          <mxGeometry y="-10" relative="1" as="geometry">
            <mxPoint x="160" y="450" as="sourcePoint" />
            <mxPoint x="80" y="450" as="targetPoint" />
            <mxPoint as="offset" />
          </mxGeometry>
        </mxCell>
        <mxCell id="EFeu-lty3BV-lqoRmeSq-21" value="查询当前用户信息" style="html=1;verticalAlign=bottom;endArrow=block;" edge="1" target="EFeu-lty3BV-lqoRmeSq-10" parent="1" source="EFeu-lty3BV-lqoRmeSq-20">
          <mxGeometry relative="1" as="geometry">
            <mxPoint x="420" y="250" as="sourcePoint" />
            <Array as="points">
              <mxPoint x="420" y="250" />
            </Array>
          </mxGeometry>
        </mxCell>
        <mxCell id="EFeu-lty3BV-lqoRmeSq-22" value="return" style="html=1;verticalAlign=bottom;endArrow=open;dashed=1;endSize=8;" edge="1" source="EFeu-lty3BV-lqoRmeSq-20" parent="1">
          <mxGeometry relative="1" as="geometry">
            <mxPoint x="410" y="270" as="targetPoint" />
          </mxGeometry>
        </mxCell>
        <mxCell id="EFeu-lty3BV-lqoRmeSq-28" value="redis" style="shape=umlLifeline;perimeter=lifelinePerimeter;container=1;collapsible=0;recursiveResize=0;rounded=0;shadow=0;strokeWidth=1;" vertex="1" parent="1">
          <mxGeometry x="520" y="60" width="100" height="1390" as="geometry" />
        </mxCell>
        <mxCell id="EFeu-lty3BV-lqoRmeSq-41" value="" style="html=1;points=[];perimeter=orthogonalPerimeter;" vertex="1" parent="EFeu-lty3BV-lqoRmeSq-28">
          <mxGeometry x="45" y="600" width="10" height="40" as="geometry" />
        </mxCell>
        <mxCell id="EFeu-lty3BV-lqoRmeSq-47" value="" style="html=1;points=[];perimeter=orthogonalPerimeter;" vertex="1" parent="EFeu-lty3BV-lqoRmeSq-28">
          <mxGeometry x="45" y="310" width="10" height="50" as="geometry" />
        </mxCell>
        <mxCell id="EFeu-lty3BV-lqoRmeSq-83" value="" style="html=1;points=[];perimeter=orthogonalPerimeter;" vertex="1" parent="EFeu-lty3BV-lqoRmeSq-28">
          <mxGeometry x="45" y="880" width="10" height="60" as="geometry" />
        </mxCell>
        <mxCell id="EFeu-lty3BV-lqoRmeSq-32" value="需鉴权请求" style="html=1;verticalAlign=bottom;startArrow=circle;startFill=1;endArrow=open;startSize=6;endSize=8;" edge="1" parent="1">
          <mxGeometry width="80" relative="1" as="geometry">
            <mxPoint x="90" y="520" as="sourcePoint" />
            <mxPoint x="170" y="520" as="targetPoint" />
          </mxGeometry>
        </mxCell>
        <mxCell id="EFeu-lty3BV-lqoRmeSq-36" value="grpc调用认证" style="html=1;verticalAlign=bottom;endArrow=block;exitX=1.14;exitY=0.535;exitDx=0;exitDy=0;exitPerimeter=0;" edge="1" parent="1" source="EFeu-lty3BV-lqoRmeSq-33">
          <mxGeometry width="80" relative="1" as="geometry">
            <mxPoint x="200" y="580" as="sourcePoint" />
            <mxPoint x="400" y="581" as="targetPoint" />
          </mxGeometry>
        </mxCell>
        <mxCell id="EFeu-lty3BV-lqoRmeSq-50" value="return" style="html=1;verticalAlign=bottom;endArrow=open;dashed=1;endSize=8;" edge="1" parent="1" target="3nuBFxr9cyL0pnOWT2aG-5">
          <mxGeometry relative="1" as="geometry">
            <mxPoint x="750" y="360" as="sourcePoint" />
            <mxPoint x="670" y="360" as="targetPoint" />
          </mxGeometry>
        </mxCell>
        <mxCell id="EFeu-lty3BV-lqoRmeSq-53" value="return" style="html=1;verticalAlign=bottom;endArrow=open;dashed=1;endSize=8;entryX=1.5;entryY=0.771;entryDx=0;entryDy=0;entryPerimeter=0;" edge="1" parent="1" target="3nuBFxr9cyL0pnOWT2aG-6">
          <mxGeometry relative="1" as="geometry">
            <mxPoint x="560" y="410" as="sourcePoint" />
            <mxPoint x="480" y="410" as="targetPoint" />
          </mxGeometry>
        </mxCell>
        <mxCell id="EFeu-lty3BV-lqoRmeSq-54" value="return" style="html=1;verticalAlign=bottom;endArrow=open;dashed=1;endSize=8;" edge="1" parent="1">
          <mxGeometry relative="1" as="geometry">
            <mxPoint x="570" y="690" as="sourcePoint" />
            <mxPoint x="410" y="690" as="targetPoint" />
          </mxGeometry>
        </mxCell>
        <mxCell id="EFeu-lty3BV-lqoRmeSq-66" value="返回鉴权结果" style="html=1;verticalAlign=bottom;endArrow=open;dashed=1;endSize=8;entryX=0.98;entryY=0.635;entryDx=0;entryDy=0;entryPerimeter=0;" edge="1" parent="1" source="3nuBFxr9cyL0pnOWT2aG-5" target="EFeu-lty3BV-lqoRmeSq-31">
          <mxGeometry relative="1" as="geometry">
            <mxPoint x="390" y="890" as="sourcePoint" />
            <mxPoint x="310" y="890" as="targetPoint" />
          </mxGeometry>
        </mxCell>
        <mxCell id="EFeu-lty3BV-lqoRmeSq-20" value="" style="html=1;points=[];perimeter=orthogonalPerimeter;" vertex="1" parent="1">
          <mxGeometry x="745" y="230" width="10" height="40" as="geometry" />
        </mxCell>
        <mxCell id="EFeu-lty3BV-lqoRmeSq-70" value="查询当前用户信息" style="html=1;verticalAlign=bottom;endArrow=block;" edge="1" parent="1" target="EFeu-lty3BV-lqoRmeSq-20">
          <mxGeometry relative="1" as="geometry">
            <mxPoint x="420" y="250" as="sourcePoint" />
            <mxPoint x="759.5" y="250" as="targetPoint" />
            <Array as="points" />
          </mxGeometry>
        </mxCell>
        <mxCell id="EFeu-lty3BV-lqoRmeSq-71" value="服务" style="shape=umlLifeline;perimeter=lifelinePerimeter;container=1;collapsible=0;recursiveResize=0;rounded=0;shadow=0;strokeWidth=1;" vertex="1" parent="1">
          <mxGeometry x="900" y="60" width="100" height="1540" as="geometry" />
        </mxCell>
        <mxCell id="EFeu-lty3BV-lqoRmeSq-79" value="" style="html=1;points=[];perimeter=orthogonalPerimeter;" vertex="1" parent="EFeu-lty3BV-lqoRmeSq-71">
          <mxGeometry x="45" y="1170" width="10" height="80" as="geometry" />
        </mxCell>
        <mxCell id="EFeu-lty3BV-lqoRmeSq-78" value="return" style="html=1;verticalAlign=bottom;endArrow=open;dashed=1;endSize=8;" edge="1" parent="1">
          <mxGeometry relative="1" as="geometry">
            <mxPoint x="150" y="1030" as="sourcePoint" />
            <mxPoint x="70" y="1030" as="targetPoint" />
          </mxGeometry>
        </mxCell>
        <mxCell id="EFeu-lty3BV-lqoRmeSq-82" value="return" style="html=1;verticalAlign=bottom;endArrow=open;dashed=1;endSize=8;" edge="1" parent="1">
          <mxGeometry relative="1" as="geometry">
            <mxPoint x="160" y="1130" as="sourcePoint" />
            <mxPoint x="80" y="1130" as="targetPoint" />
          </mxGeometry>
        </mxCell>
        <mxCell id="EFeu-lty3BV-lqoRmeSq-75" value="grpc服务" style="html=1;verticalAlign=bottom;endArrow=block;" edge="1" parent="1" source="3nuBFxr9cyL0pnOWT2aG-1" target="EFeu-lty3BV-lqoRmeSq-71">
          <mxGeometry width="80" relative="1" as="geometry">
            <mxPoint x="190" y="960" as="sourcePoint" />
            <mxPoint x="270" y="960" as="targetPoint" />
            <Array as="points">
              <mxPoint x="550" y="1170" />
            </Array>
          </mxGeometry>
        </mxCell>
        <mxCell id="EFeu-lty3BV-lqoRmeSq-76" value="grpc返回结果" style="html=1;verticalAlign=bottom;endArrow=open;dashed=1;endSize=8;exitX=-0.3;exitY=0.835;exitDx=0;exitDy=0;exitPerimeter=0;" edge="1" parent="1" source="EFeu-lty3BV-lqoRmeSq-74" target="3nuBFxr9cyL0pnOWT2aG-1">
          <mxGeometry relative="1" as="geometry">
            <mxPoint x="270" y="990" as="sourcePoint" />
            <mxPoint x="190" y="990" as="targetPoint" />
            <Array as="points" />
          </mxGeometry>
        </mxCell>
        <mxCell id="EFeu-lty3BV-lqoRmeSq-80" value="route" style="html=1;verticalAlign=bottom;endArrow=block;" edge="1" parent="1" source="3nuBFxr9cyL0pnOWT2aG-1" target="EFeu-lty3BV-lqoRmeSq-71">
          <mxGeometry width="80" relative="1" as="geometry">
            <mxPoint x="180" y="1090" as="sourcePoint" />
            <mxPoint x="260" y="1090" as="targetPoint" />
            <Array as="points">
              <mxPoint x="550" y="1250" />
            </Array>
          </mxGeometry>
        </mxCell>
        <mxCell id="EFeu-lty3BV-lqoRmeSq-81" value="return" style="html=1;verticalAlign=bottom;endArrow=open;dashed=1;endSize=8;" edge="1" parent="1" source="EFeu-lty3BV-lqoRmeSq-71" target="3nuBFxr9cyL0pnOWT2aG-1">
          <mxGeometry relative="1" as="geometry">
            <mxPoint x="260" y="1130" as="sourcePoint" />
            <mxPoint x="180" y="1130" as="targetPoint" />
            <Array as="points">
              <mxPoint x="910" y="1280" />
            </Array>
          </mxGeometry>
        </mxCell>
        <mxCell id="EFeu-lty3BV-lqoRmeSq-74" value="" style="html=1;points=[];perimeter=orthogonalPerimeter;" vertex="1" parent="1">
          <mxGeometry x="945" y="1160" width="10" height="40" as="geometry" />
        </mxCell>
        <mxCell id="EFeu-lty3BV-lqoRmeSq-60" value="查询数据库" style="html=1;verticalAlign=bottom;endArrow=block;" edge="1" parent="1" source="3nuBFxr9cyL0pnOWT2aG-5">
          <mxGeometry width="80" relative="1" as="geometry">
            <mxPoint x="610" y="759.5" as="sourcePoint" />
            <mxPoint x="750" y="759.5" as="targetPoint" />
          </mxGeometry>
        </mxCell>
        <mxCell id="EFeu-lty3BV-lqoRmeSq-90" value="查询权限信息" style="html=1;verticalAlign=bottom;endArrow=block;" edge="1" parent="1" target="EFeu-lty3BV-lqoRmeSq-83">
          <mxGeometry width="80" relative="1" as="geometry">
            <mxPoint x="420" y="950" as="sourcePoint" />
            <mxPoint x="759.5" y="950" as="targetPoint" />
            <Array as="points" />
          </mxGeometry>
        </mxCell>
      </root>
    </mxGraphModel>
  </diagram>
</mxfile>
